<svg width="24" height="24" viewBox="0 0 24 24" fill="none" xmlns="http://www.w3.org/2000/svg"> <path fill-rule="evenodd" clip-rule="evenodd" d="M6.71601 4.35321L7.38188 6.3723L20.3127 6.56557L19.4105 10.3675C19.2649 10.9898 18.7368 11.4486 18.1003 11.5059L9.358 12.4081L9.48689 12.7303C9.51164 12.8374 9.50416 12.9495 9.46543 13.0525L9.20769 13.6969C9.07218 14.0374 9.11231 14.4227 9.31508 14.7279C9.50301 15.0372 9.83406 15.2309 10.1957 15.2434H18.5729C18.8101 15.2434 19.0025 15.4358 19.0025 15.673C19.0025 15.9103 18.8101 16.1026 18.5729 16.1026H10.1958C9.54367 16.083 8.94226 15.7462 8.58478 15.2005C8.24087 14.6379 8.17739 13.9476 8.41293 13.3317L8.60624 12.8377L5.89978 4.61099C5.74712 4.16943 5.33582 3.86951 4.86873 3.85919H3.4296C3.19233 3.85919 3 3.66686 3 3.4296C3 3.19233 3.19233 3 3.4296 3H4.86873C5.70971 3.01201 6.45095 3.55499 6.71601 4.35321ZM8.90696 21C9.97461 21 10.8401 20.1345 10.8401 19.0669C10.8401 17.9992 9.97461 17.1337 8.90696 17.1337C7.83931 17.1337 6.9738 17.9992 6.9738 19.0669C6.9738 20.1345 7.83931 21 8.90696 21ZM17.0692 21C18.1369 21 19.0024 20.1345 19.0024 19.0669C19.0024 17.9992 18.1369 17.1337 17.0692 17.1337C16.0016 17.1337 15.136 17.9992 15.136 19.0669C15.136 20.1345 16.0016 21 17.0692 21Z" fill="black"/> </svg>