<svg width="24" height="24" viewBox="0 0 24 24" fill="none" xmlns="http://www.w3.org/2000/svg">
<path fill-rule="evenodd" clip-rule="evenodd" d="M4.42105 6.82351C3.63745 6.82351 3 6.19026 3 5.41176C3 4.63325 3.63745 4 4.42105 4H19.5789C20.3625 4 21 4.63328 21 5.41176C21 6.19023 20.3625 6.82351 19.5789 6.82351H4.42105ZM4.42105 13.4118C3.63745 13.4118 3 12.7785 3 12C3 11.2215 3.63745 10.5883 4.42105 10.5883H19.5789C20.3625 10.5883 21 11.2215 21 12C21 12.7785 20.3625 13.4118 19.5789 13.4118H4.42105ZM3 18.5881C3 19.3666 3.63745 19.9999 4.42105 19.9999H19.5789C20.3625 19.9999 21 19.3666 21 18.5881C21 17.8097 20.3625 17.1764 19.5789 17.1764H4.42105C3.63745 17.1764 3 17.8097 3 18.5881Z" fill="#F3F3F3"/>
</svg>
