<svg width="32" height="32" viewBox="0 0 32 32" fill="none" xmlns="http://www.w3.org/2000/svg">
<path d="M17.5907 16L24.6704 8.92103C25.1099 8.48156 25.1099 7.76904 24.6704 7.3296C24.2309 6.89013 23.5184 6.89013 23.079 7.3296L16 14.4093L8.92103 7.3296C8.48156 6.89013 7.76904 6.89013 7.3296 7.3296C6.89017 7.76907 6.89013 8.48159 7.3296 8.92103L14.4093 16L7.3296 23.079C6.89013 23.5184 6.89013 24.231 7.3296 24.6704C7.76907 25.1098 8.48159 25.1099 8.92103 24.6704L16 17.5907L23.0789 24.6704C23.5184 25.1099 24.2309 25.1099 24.6704 24.6704C25.1098 24.2309 25.1098 23.5184 24.6704 23.079L17.5907 16Z" fill="#F3F3F3"/>
</svg>
